<svg width="19" height="18" viewBox="0 0 19 18" fill="none" xmlns="http://www.w3.org/2000/svg">
<path d="M16.5325 8.51377L8.94277 1.92649C8.88452 1.87627 8.81018 1.84814 8.73184 1.84814H6.95393C6.80527 1.84814 6.73697 2.03297 6.84947 2.12939L13.8847 8.23654H2.12849C2.04009 8.23654 1.96777 8.30886 1.96777 8.39725V9.60261C1.96777 9.691 2.04009 9.76332 2.12849 9.76332H13.8827L6.84746 15.8705C6.73496 15.9689 6.80327 16.1517 6.95193 16.1517H8.7901C8.82827 16.1517 8.86643 16.1377 8.89456 16.1115L16.5325 9.48609C16.6021 9.42562 16.6578 9.35092 16.696 9.26705C16.7342 9.18318 16.754 9.09209 16.754 8.99993C16.754 8.90777 16.7342 8.81668 16.696 8.73281C16.6578 8.64894 16.6021 8.57425 16.5325 8.51377Z" fill="white"/>
</svg>
